<svg width="420.34999999999997px" height="122.021240234375px" xmlns="http://www.w3.org/2000/svg" viewBox="39.82500000000002 13.9893798828125 420.34999999999997 122.021240234375" style="background: rgba(0, 0, 0, 0);" preserveAspectRatio="xMidYMid"><defs><filter id="editing-hole" x="-100%" y="-100%" width="300%" height="300%"><feFlood flood-color="#000" result="black"></feFlood><feMorphology operator="dilate" radius="2" in="SourceGraphic" result="erode"></feMorphology><feGaussianBlur in="erode" stdDeviation="4" result="blur"></feGaussianBlur><feOffset in="blur" dx="2" dy="2" result="offset"></feOffset><feComposite operator="atop" in="offset" in2="black" result="merge"></feComposite><feComposite operator="in" in="merge" in2="SourceGraphic" result="inner-shadow"></feComposite></filter></defs><g filter="url(#editing-hole)"><g transform="translate(102.91063416004181, 97.42218780517578)"><path d="M26.05-29.57L26.05-29.57L26.05-29.57Q27.01-31.49 27.01-33.28L27.01-33.28L27.01-33.28Q27.01-35.07 26.82-36.06L26.82-36.06L26.82-36.06Q26.62-37.06 26.18-37.82L26.18-37.82L26.18-37.82Q25.22-39.49 23.30-39.49L23.30-39.49L23.30-39.49Q20.93-39.49 19.01-37.76L19.01-37.76L19.01-37.76Q16.96-35.97 16.96-33.15L16.96-33.15L16.96-33.15Q16.96-31.36 18.21-29.98L18.21-29.98L18.21-29.98Q19.46-28.61 21.38-27.33L21.38-27.33L21.38-27.33Q23.30-26.05 25.47-24.77L25.47-24.77L25.47-24.77Q27.65-23.49 29.57-21.95L29.57-21.95L29.57-21.95Q33.98-18.43 33.98-13.70L33.98-13.70L33.98-13.70Q33.98-10.50 32.29-7.78L32.29-7.78L32.29-7.78Q30.59-5.06 27.78-3.07L27.78-3.07L27.78-3.07Q21.63 1.28 13.50 1.28L13.50 1.28L13.50 1.28Q6.91 1.28 3.52-0.86L3.52-0.86L3.52-0.86Q0.13-3.01 0.13-6.27L0.13-6.27L0.13-6.27Q0.13-12.10 4.67-13.57L4.67-13.57L4.67-13.57Q5.95-14.02 7.90-14.02L7.90-14.02L7.90-14.02Q9.86-14.02 12.10-13.18L12.10-13.18L12.10-13.18Q11.07-10.56 11.07-8.19L11.07-8.19L11.07-8.19Q11.07-3.07 14.72-3.07L14.72-3.07L14.72-3.07Q17.09-3.07 19.04-4.80L19.04-4.80L19.04-4.80Q20.99-6.53 20.99-8.48L20.99-8.48L20.99-8.48Q20.99-10.43 19.74-11.84L19.74-11.84L19.74-11.84Q18.50-13.25 16.64-14.37L16.64-14.37L16.64-14.37Q14.78-15.49 12.64-16.58L12.64-16.58L12.64-16.58Q10.50-17.66 8.64-19.20L8.64-19.20L8.64-19.20Q4.29-22.72 4.29-28.35L4.29-28.35L4.29-28.35Q4.29-32 6.08-34.85L6.08-34.85L6.08-34.85Q7.87-37.70 10.75-39.62L10.75-39.62L10.75-39.62Q16.51-43.52 23.58-43.52L23.58-43.52L23.58-43.52Q30.66-43.52 34.08-41.41L34.08-41.41L34.08-41.41Q37.50-39.30 37.50-35.71L37.50-35.71L37.50-35.71Q37.50-32.58 35.07-30.59L35.07-30.59L35.07-30.59Q32.96-28.93 30.40-28.93L30.40-28.93L30.40-28.93Q27.84-28.93 26.05-29.57ZM39.81-15.62L39.81-15.62L39.81-15.62Q39.81-27.71 46.08-35.33L46.08-35.33L46.08-35.33Q52.74-43.58 64.32-43.58L64.32-43.58L64.32-43.58Q72.70-43.58 76.93-39.52L76.93-39.52L76.93-39.52Q81.15-35.46 81.15-26.88L81.15-26.88L81.15-26.88Q81.15-13.82 74.50-6.21L74.50-6.21L74.50-6.21Q67.90 1.28 56.83 1.28L56.83 1.28L56.83 1.28Q48.19 1.28 44-3.04L44-3.04L44-3.04Q39.81-7.36 39.81-15.62ZM56.64-28.86L56.64-28.86L56.64-28.86Q53.76-17.34 53.76-8.26L53.76-8.26L53.76-8.26Q53.76-6.08 54.50-4.67L54.50-4.67L54.50-4.67Q55.23-3.26 57.18-3.26L57.18-3.26L57.18-3.26Q59.14-3.26 60.35-4.19L60.35-4.19L60.35-4.19Q61.57-5.12 62.53-7.23L62.53-7.23L62.53-7.23Q64.06-10.69 65.50-18.02L65.50-18.02L65.50-18.02Q66.94-25.34 67.07-28.38L67.07-28.38L67.07-28.38Q67.20-31.42 67.20-33.73L67.20-33.73L67.20-33.73Q67.20-36.03 66.50-37.50L66.50-37.50L66.50-37.50Q65.79-38.98 63.90-38.98L63.90-38.98L63.90-38.98Q62.02-38.98 60.74-37.82L60.74-37.82L60.74-37.82Q58.37-35.65 56.64-28.86ZM83.65-0.32L83.65-0.32L91.71-42.24L91.71-42.24Q99.26-42.88 104.13-42.88L104.13-42.88L104.13-42.88Q108.99-42.88 112.13-42.46L112.13-42.46L112.13-42.46Q115.26-42.05 117.38-40.96L117.38-40.96L117.38-40.96Q121.60-38.91 121.60-33.28L121.60-33.28L121.60-33.28Q121.60-30.02 118.78-27.26L118.78-27.26L118.78-27.26Q116.16-24.77 113.28-24.19L113.28-24.19L113.28-24.19Q116.35-23.68 118.53-21.38L118.53-21.38L118.53-21.38Q120.83-18.94 120.83-15.17L120.83-15.17L120.83-15.17Q120.83-7.87 115.39-3.62L115.39-3.62L115.39-3.62Q109.95 0.64 99.26 0.64L99.26 0.64L99.26 0.64Q91.90 0.64 83.65-0.32ZM101.06-20.61L97.86-4.03L97.86-4.03Q98.43-3.97 98.56-3.97L98.56-3.97L99.14-3.97L99.14-3.97Q104.38-3.97 106.62-7.42L106.62-7.42L106.62-7.42Q108.29-10.11 108.29-15.04L108.29-15.04L108.29-15.04Q108.29-17.66 106.59-19.07L106.59-19.07L106.59-19.07Q104.90-20.48 101.06-20.61L101.06-20.61ZM110.78-33.22L110.78-33.22L110.78-33.22Q110.78-38.53 105.66-38.53L105.66-38.53L105.09-38.53L105.09-38.53Q104.83-38.53 104.45-38.46L104.45-38.46L101.89-24.96L102.53-24.96L102.53-24.96Q110.78-25.15 110.78-33.22ZM138.18 0L124.48 0L132.29-42.05L132.29-42.05Q138.62-42.75 147.87-42.75L147.87-42.75L147.87-42.75Q157.12-42.75 161.41-40.06L161.41-40.06L161.41-40.06Q165.70-37.38 165.70-31.97L165.70-31.97L165.70-31.97Q165.70-26.56 162.91-23.17L162.91-23.17L162.91-23.17Q160.13-19.78 155.33-18.69L155.33-18.69L155.33-18.69Q156.42-13.38 158.91-9.09L158.91-9.09L158.91-9.09Q161.22-5.06 163.90-3.78L163.90-3.78L163.90-3.78Q162.94-1.09 160.99 0.10L160.99 0.10L160.99 0.10Q159.04 1.28 156.26 1.28L156.26 1.28L156.26 1.28Q153.47 1.28 151.30-0.35L151.30-0.35L151.30-0.35Q149.12-1.98 147.39-4.99L147.39-4.99L147.39-4.99Q143.74-11.52 143.36-21.82L143.36-21.82L143.81-21.82L143.81-21.82Q148.54-21.95 150.91-24.42L150.91-24.42L150.91-24.42Q153.28-26.88 153.28-32.06L153.28-32.06L153.28-32.06Q153.28-38.53 147.84-38.78L147.84-38.78L146.43-38.78L146.43-38.78Q145.86-38.78 145.54-38.72L145.54-38.72L138.18 0ZM195.97-9.86L195.97-9.86L195.97-9.86Q197.18-8.32 197.18-5.82L197.18-5.82L197.18-5.82Q197.18-2.37 194.62-0.54L194.62-0.54L194.62-0.54Q192.06 1.28 188.03 1.28L188.03 1.28L188.03 1.28Q185.73 1.28 182.21 0.77L182.21 0.77L182.21 0.77Q175.30-0.32 173.18-0.32L173.18-0.32L173.18-0.32Q171.07-0.32 170.24-0.22L170.24-0.22L170.24-0.22Q169.41-0.13 168.06 0L168.06 0L175.94-42.24L203.52-42.24L203.52-42.24Q203.52-38.34 201.63-36.29L201.63-36.29L201.63-36.29Q199.74-34.24 196.03-34.24L196.03-34.24L196.03-34.24Q192.32-34.24 188.54-35.97L188.54-35.97L186.56-24.77L197.95-24.77L197.95-24.77Q197.95-21.38 196.29-19.49L196.29-19.49L196.29-19.49Q194.62-17.60 191.84-17.60L191.84-17.60L191.84-17.60Q189.06-17.60 187.33-18.24L187.33-18.24L187.33-18.24Q185.60-18.88 185.41-19.07L185.41-19.07L183.10-6.98L183.10-6.98Q184.64-6.78 187.52-6.78L187.52-6.78L187.52-6.78Q192.45-6.78 195.97-9.86ZM221.70 0L214.34 0L225.92-42.24L239.30-42.24L242.24-18.11L254.14-42.24L265.34-42.24L266.50-10.62L266.50-10.62Q266.75-4.35 269.82-2.43L269.82-2.43L269.82-2.43Q269.12-1.15 267.07 0.06L267.07 0.06L267.07 0.06Q265.02 1.28 262.30 1.28L262.30 1.28L262.30 1.28Q259.58 1.28 257.98 0.51L257.98 0.51L257.98 0.51Q256.38-0.26 255.49-1.54L255.49-1.54L255.49-1.54Q253.89-3.84 253.89-8.26L253.89-8.26L253.89-28.03L241.28 0L233.34 0L228.86-28.74L221.70 0ZM285.82 0L271.87 0L280-42.24L294.08-42.24L285.82 0Z" fill="#ccc"></path></g></g><style>text {
  font-size: 64px;
  font-family: Arial Black;
  dominant-baseline: central;
  text-anchor: middle;
}</style></svg>